<?xml version="1.0" standalone="no"?>
<!DOCTYPE svg PUBLIC "-//W3C//DTD SVG 20010904//EN"
 "http://www.w3.org/TR/2001/REC-SVG-20010904/DTD/svg10.dtd">
<svg version="1.0" xmlns="http://www.w3.org/2000/svg"
 width="512.000000pt" height="512.000000pt" viewBox="0 0 512.000000 512.000000"
 preserveAspectRatio="xMidYMid meet">

<g transform="translate(0.000000,512.000000) scale(0.100000,-0.100000)"
fill="#000000" stroke="none">
<path d="M1012 4035 c-22 -18 -32 -37 -36 -70 l-7 -45 -453 0 -453 0 -26 -26
c-42 -42 -42 -97 0 -139 l26 -25 453 0 454 0 0 -109 c0 -105 -1 -109 -23 -115
-37 -9 -103 -72 -128 -123 -23 -46 -24 -59 -27 -300 -4 -284 3 -338 51 -410
48 -71 125 -107 226 -108 92 0 141 16 192 62 69 63 83 94 89 213 l5 105 98 3
97 3 0 -43 c0 -54 28 -114 71 -155 55 -51 95 -63 219 -63 l110 0 0 -35 c0 -29
-6 -38 -43 -63 -67 -47 -202 -194 -263 -287 -173 -265 -267 -602 -281 -1007
l-6 -177 31 -30 c38 -39 88 -42 128 -8 31 27 42 80 43 202 3 323 110 703 263
928 49 73 154 185 207 222 36 24 44 26 72 16 18 -6 101 -11 195 -11 l164 0 0
-85 0 -85 -212 0 c-183 0 -218 -3 -248 -18 -59 -29 -60 -38 -58 -334 l3 -268
28 -27 27 -28 548 -3 c407 -2 554 1 576 9 51 22 56 52 56 328 0 137 -4 261
-10 275 -21 56 -44 61 -287 64 l-224 3 3 82 3 82 175 5 c96 3 183 9 193 14 24
11 80 -29 161 -115 147 -155 248 -356 309 -615 31 -127 57 -316 58 -412 0 -37
3 -98 8 -136 6 -58 12 -73 35 -92 37 -33 86 -32 127 3 l32 27 -6 186 c-17 508
-159 906 -422 1179 -47 49 -104 101 -125 116 -33 23 -40 33 -40 61 l0 34 113
0 c88 0 121 4 152 19 79 37 135 120 135 201 l0 41 98 -3 97 -3 5 -105 c6 -119
20 -150 89 -213 51 -46 100 -62 192 -62 101 1 178 37 226 108 48 72 55 126 51
410 -3 241 -4 254 -27 300 -25 51 -91 114 -128 123 -22 6 -23 10 -23 115 l0
109 453 0 c413 0 454 2 474 18 46 35 46 119 1 154 -21 16 -60 18 -474 18
l-452 0 -6 43 c-8 47 -21 68 -53 85 -63 34 -132 -5 -142 -79 l-6 -44 -458 -5
-459 -5 -24 -28 c-32 -38 -32 -86 2 -126 l26 -31 456 -2 457 -3 3 -102 3 -102
-37 -17 c-49 -24 -102 -78 -125 -128 -14 -30 -19 -65 -19 -133 l0 -93 -100 0
c-95 0 -100 1 -100 21 0 72 -53 154 -123 192 l-42 22 -845 0 -845 0 -40 -22
c-22 -11 -50 -32 -62 -45 -29 -31 -63 -106 -63 -140 l0 -28 -100 0 -100 0 0
93 c-1 133 -42 212 -136 257 l-45 22 3 102 3 101 455 3 454 2 28 27 c22 21 28
36 28 68 0 32 -6 47 -28 68 l-28 27 -454 2 -455 3 -6 44 c-11 84 -94 119 -157
66z m122 -721 c25 -25 27 -47 24 -286 -3 -206 -5 -228 -22 -247 -26 -29 -98
-29 -126 -1 -19 19 -20 33 -20 265 0 232 1 246 20 265 25 25 101 28 124 4z
m2976 -4 c19 -19 20 -33 20 -265 0 -232 -1 -246 -20 -265 -26 -26 -89 -27
-121 -1 -24 19 -24 22 -27 238 -3 232 0 273 24 298 23 23 99 20 124 -5z m-745
-270 l0 -145 -160 -5 c-105 -4 -168 -10 -183 -18 -34 -20 -52 -72 -52 -151 0
-59 -3 -72 -19 -81 -27 -14 -755 -14 -782 0 -16 9 -19 22 -19 81 0 79 -18 131
-52 151 -15 8 -78 14 -183 18 l-160 5 -3 134 c-1 74 0 141 2 148 4 11 155 13
808 11 l803 -3 0 -145z m-1120 -987 c-26 -68 -26 -178 0 -245 6 -16 0 -18 -49
-18 l-56 0 0 140 0 140 56 0 c49 0 55 -2 49 -17z m369 3 c60 -25 97 -99 82
-161 -4 -14 -22 -43 -41 -63 -32 -35 -37 -37 -95 -37 -58 0 -63 2 -95 37 -19
20 -37 49 -41 63 -11 45 5 97 42 131 46 44 92 53 148 30z m366 -126 l0 -140
-56 0 c-49 0 -55 2 -49 17 27 72 27 176 0 246 -6 15 0 17 49 17 l56 0 0 -140z"/>
</g>
</svg>
